<svg t="1630638580057" class="icon" viewBox="0 0 1024 1024" version="1.1" xmlns="http://www.w3.org/2000/svg" p-id="4248"
     width="128" height="128">
    <path d="M880.213333 870.4h-716.8V153.6h318.293334V85.333333H146.346667c-28.16 0-51.2 23.04-51.2 51.2v750.933334c0 28.16 23.04 51.2 51.2 51.2h750.933333c28.16 0 51.2-23.04 51.2-51.2v-346.88h-68.266667V870.4z"
          p-id="4249"></path>
    <path d="M914.346667 763.733333c-18.773333 0-34.133333-15.36-34.133334-34.133333v-200.533333c0-18.773333 15.36-34.133333 34.133334-34.133334s34.133333 15.36 34.133333 34.133334v200.533333c0 18.773333-14.933333 34.133333-34.133333 34.133333zM504.746667 153.6h-89.6c-18.773333 0-34.133333-15.36-34.133334-34.133333s15.36-34.133333 34.133334-34.133334h89.6c18.773333 0 34.133333 15.36 34.133333 34.133334s-14.933333 34.133333-34.133333 34.133333zM688.64 600.746667h-220.16c-19.2 0-34.986667-15.786667-34.986667-34.986667 0-19.2 15.786667-34.986667 34.986667-34.986667h220.16c19.2 0 34.986667 15.786667 34.986667 34.986667 0 19.2-15.36 34.986667-34.986667 34.986667z"
         p-id="4250"></path>
    <path d="M433.493333 565.76V345.6c0-19.2 15.786667-34.986667 34.986667-34.986667 19.2 0 34.986667 15.786667 34.986667 34.986667v220.16c0 19.2-15.786667 34.986667-34.986667 34.986667-19.2 0-34.986667-15.786667-34.986667-34.986667z"
           p-id="4251"></path>
    <path d="M444.16 590.506667l-0.426667-0.426667c-13.226667-13.226667-13.226667-34.56 0-47.786667L890.453333 95.146667c13.226667-13.226667 34.56-13.226667 47.786667 0l0.426667 0.426666c13.226667 13.226667 13.226667 34.56 0 47.786667L491.52 590.506667c-13.226667 13.226667-34.56 13.226667-47.36 0z"
          p-id="4252"></path>
</svg>