<svg t="1629536384556" class="icon" viewBox="0 0 1024 1024" version="1.1" xmlns="http://www.w3.org/2000/svg" p-id="1225" width="200" height="200"><path d="M333.6 412.5H158.7c-0.6 0-1.1-0.5-1.1-1.1v-9.5c0-0.6 0.5-1.1 1.1-1.1h174.9c0.6 0 1.1 0.5 1.1 1.1v9.5c0 0.6-0.5 1.1-1.1 1.1zM333.6 527.5H158.7c-0.6 0-1.1-0.5-1.1-1.1v-9.5c0-0.6 0.5-1.1 1.1-1.1h174.9c0.6 0 1.1 0.5 1.1 1.1v9.5c0 0.6-0.5 1.1-1.1 1.1zM333.6 642.5H158.7c-0.6 0-1.1-0.5-1.1-1.1v-9.5c0-0.6 0.5-1.1 1.1-1.1h174.9c0.6 0 1.1 0.5 1.1 1.1v9.5c0 0.6-0.5 1.1-1.1 1.1zM736.7 725.9L602.1 853.7c-2.3 2.2-6 2.1-8.2-0.2-2.2-2.3-2.1-6 0.2-8.2l134.6-127.8c2.3-2.2 6-2.1 8.2 0.2 2.3 2.3 2.2 6-0.2 8.2zM868.1 601l-49.6 47.2c-0.4 0.4-1.1 0.4-1.6 0l-6.5-6.9c-0.4-0.4-0.4-1.1 0-1.6l49.6-47.2c0.4-0.4 1.1-0.4 1.6 0l6.5 6.9c0.4 0.5 0.4 1.2 0 1.6zM791 674.3l-11.1 10.5c-0.4 0.4-1.1 0.4-1.6 0l-6.5-6.9c-0.4-0.4-0.4-1.1 0-1.6l11.1-10.5c0.4-0.4 1.1-0.4 1.6 0l6.5 6.9c0.4 0.5 0.4 1.2 0 1.6z" p-id="1226" fill="#ffffff"></path><path d="M500.7 914.3c0-7-5.6-12.6-12.6-12.6H118.9c-18.2 0-33.1-13.7-33.1-30.6V136.2c0-16.9 14.8-30.6 33.1-30.6h488.2c18.2 0 33.1 13.7 33.1 30.6v181c0 7.5 6.1 13.6 13.6 13.6s13.6-6.1 13.6-13.6v-181c0-30.8-27-55.9-60.3-55.9H118.9c-33.2 0-60.3 25.1-60.3 55.9V871c0 30.8 27 55.9 60.3 55.9h369.2c7 0.1 12.6-5.6 12.6-12.6z" p-id="1227" fill="#ffffff"></path><path d="M947 670.8L669.7 385.3c-18.1-19.1-41.2-14.8-71.1-20.4-11.2-2.1-155.3-11-211.8-6.2-9.5 0.8-17.1 8.2-18.1 17.7-6.1 55.2 0.3 193.4 0.6 200.6 1.1 38.1 2.7 54.9 20.8 73.9l277.3 285.4c21.2 22.3 58.1 21.8 82.2-1.1l192.3-182.5c24-22.8 26.4-59.6 5.1-81.9z m-22.5 63.7L732.2 917c-13.2 12.6-33.4 12.8-45.1 0.6L409.7 632.1c-0.7-0.8-1.4-1.6-2-2.4-11.3-14.8-22.3-172.1-14-229 1.3-9.2 8.7-16.3 17.9-17.4 57.8-6.9 219.2 7 233.6 16.7 1.7 1.1 3.3 2.5 4.7 4l277.3 285.4c11.7 12.4 10.5 32.6-2.7 45.1z" p-id="1228" fill="#ffffff"></path><path d="M501.7 484.6m-45 0a45 45 0 1 0 90 0 45 45 0 1 0-90 0Z" p-id="1229" fill="#ffffff"></path><path d="M199.6 177.5c6.6 4.8 10.3 12.4 11.2 22.6h-14.2c-1.3-6.2-3.8-10.6-7.4-13.1-3.6-2.7-8.9-4.1-16-4.1-6.1 0-10.9 0.9-14.2 2.8-4 2.1-6 5.5-6 10.3 0 4.2 2.3 7.5 7 10 2.3 1.3 7.7 3.2 16.3 5.8 13 4 21.2 7.1 24.6 9.2 8.1 4.9 12.1 11.7 12.1 20.3 0 8.3-3.3 14.9-9.9 19.9-6.6 4.7-15.8 7.1-27.6 7.1-11.3 0-20.3-2.3-26.8-6.8-7.7-5.5-12-14.2-12.8-26h14.2c1.1 7.5 3.7 12.8 7.9 15.9 3.9 2.9 9.7 4.3 17.5 4.3 6.9 0 12.6-1.2 17-3.7 4.2-2.4 6.3-5.7 6.3-9.9 0-5.2-3-9.3-8.9-12.4-2.2-1.1-8.4-3.2-18.7-6.3-11.7-3.8-18.9-6.4-21.6-7.8-7.2-4.3-10.8-10.6-10.8-18.8 0-8.2 3.5-14.7 10.4-19.5 6.6-4.5 14.9-6.7 24.9-6.7 11 0 19.5 2.3 25.5 6.9zM224.9 198.3h13.9v41.4c0 5.9 1.2 10.1 3.7 12.6 2.5 2.7 6.4 4.1 11.7 4.1 3.5 0 6.9-1.5 10.1-4.5 3.2-3.1 5.3-7.1 6.6-12.1v-41.6h13.9v68h-13.9V257c-5.8 7.4-12.9 11-21.4 11-16.4 0-24.6-9.2-24.6-27.5v-42.2zM300.8 170.6h13.9v37.9c5.5-8 12.4-12 20.8-12 9.7 0 17.4 3.6 23 10.6 5.2 6.7 7.8 14.9 7.8 24.9 0 10.4-2.6 18.9-7.9 25.5-5.8 7.1-13.6 10.7-23.5 10.7-9.2 0-16.2-3.3-21-10v8.2h-13v-95.8z m18.9 43.4c-3.6 4.4-5.4 10.3-5.4 17.8v1.2c0 6.8 1.4 12.3 4.3 16.7 3.3 4.8 8 7.2 14.1 7.2 6.7 0 11.8-2.5 15.1-7.4 2.7-4.4 4.1-10.2 4.1-17.5 0-7.5-1.4-13.3-4.3-17.2-3.2-4.6-8.3-7-15.3-7-5.3 0-9.5 2.1-12.6 6.2zM382.7 198.3h13.9v74.6c0 13-6.9 19.5-20.6 19.5h-6.4V281h5.3c5.3 0 7.9-2.8 7.9-8.5v-74.2z m13.9-24.6c1.8 1.7 2.8 3.9 2.8 6.7 0 2.7-0.9 5-2.8 6.8-2 1.8-4.3 2.6-7 2.6-2.5 0-4.8-0.9-6.7-2.6-1.9-1.8-2.9-4.1-2.9-6.8 0-2.8 1-5 2.9-6.7 1.8-1.8 4-2.6 6.7-2.6 3 0 5.3 0.9 7 2.6zM469.6 207.8c5.3 6.9 8.1 16.4 8.2 28.4h-51.5c0.5 6.8 2.3 11.8 5.4 15.3 3.2 3.5 7.6 5.3 13 5.3 4.8 0 8.8-1.1 11.8-3.4 2.2-1.7 4.2-4.6 6.2-8.8h13.9c-1.7 6.5-4.8 11.8-9.3 15.9-6 5.2-13.5 7.8-22.5 7.8-10.1 0-18-3.1-23.8-9.3-6.3-6.6-9.5-15.4-9.5-26.6 0-10.2 3-18.6 8.9-25.4 5.8-6.9 13.7-10.4 23.8-10.4 11.3-0.1 19.7 3.7 25.4 11.2z m-37.5 4.7c-3 3.2-4.9 7.5-5.7 13.2h36.7c-1.3-11.8-7.5-17.8-18.5-17.8-5.2 0-9.4 1.6-12.5 4.6zM540.8 202.4c5.3 4.3 8.7 10.6 10 18.9H537c-1-4.7-2.8-8.1-5.7-10.1-2.8-2.2-6.6-3.3-11.4-3.3-5.8 0-10.3 2.2-13.5 6.4-3.3 4.1-5 10.1-5 17.9 0 7.7 1.6 13.7 4.9 18 3.1 4.3 7.6 6.4 13.5 6.4 10.3 0 16.2-5.2 17.5-15.5H551c-1.6 9-5 15.8-10.4 20.4-5.3 4.4-12.4 6.6-21 6.6-10.3 0-18.4-3.4-24.2-10.3-5.6-6.5-8.4-15-8.4-25.5 0-10.3 2.8-18.7 8.3-25.3 6-7.1 14.2-10.6 24.6-10.6 8.6 0.1 15.6 2.1 20.9 6zM583.6 198.3h15.5v11.6h-15.5v39.4c0 1.8 0.4 3.1 1.2 4.1 0.9 0.9 2.1 1.3 3.7 1.3h8.9v11.6h-11.2c-5.9 0-10.1-1.5-12.8-4.6-2.5-2.8-3.8-6.9-3.8-12.4v-39.4H557v-11.6h12.6v-16.2l13.9-5.8v22z" p-id="1230" fill="#ffffff"></path></svg>